<svg xmlns="http://www.w3.org/2000/svg" width="58" height="36" viewBox="0 0 58 36" fill="none"><g filter="url(#filter0_d_759_233)"><path d="M27.6535 13.4348C28.4764 14.471 29.2992 14.471 30.1221 13.4348L38.0887 2.625C38.9115 1.54167 40.258 1 42.1281 1L51.1046 1C52.9747 1 53.461 1.51812 52.5633 2.55435L33.4882 25.4457C32.5906 26.4819 31.2067 27 29.3366 27H28.6634C26.7933 27 25.4094 26.4819 24.5118 25.4457L5.43669 2.55435C4.53904 1.51812 5.02527 1 6.89538 1L15.6475 1C17.5176 1 18.864 1.54167 19.6869 2.625L27.6535 13.4348Z" fill="white"></path><path d="M37.6905 2.32257L37.6905 2.32254L37.6862 2.32836L29.7251 13.1307C29.3537 13.596 29.0726 13.712 28.8878 13.712C28.703 13.712 28.4219 13.596 28.0505 13.1307L20.0894 2.32836L20.0894 2.32833L20.0851 2.32257C19.1353 1.07215 17.6112 0.5 15.6475 0.5L6.89538 0.5C6.40915 0.5 5.9884 0.533283 5.6449 0.608813C5.31329 0.681728 4.98733 0.807955 4.76353 1.04643C4.5067 1.32011 4.4509 1.66723 4.53958 2.00226C4.61932 2.30354 4.81328 2.59771 5.05555 2.878L24.1276 25.7657L24.1276 25.7658L24.1338 25.773C25.1575 26.9548 26.7036 27.5 28.6634 27.5H29.3366C31.2964 27.5 32.8425 26.9548 33.8662 25.773L33.8662 25.7731L33.8724 25.7657L52.9445 2.8779C53.1868 2.59764 53.3807 2.3035 53.4604 2.00226C53.5491 1.66723 53.4933 1.32011 53.2365 1.04643C53.0127 0.807955 52.6867 0.681727 52.3551 0.608812C52.0116 0.533283 51.5908 0.5 51.1046 0.5L42.1281 0.5C40.1644 0.5 38.6403 1.07215 37.6905 2.32257Z" stroke="black"></path></g><defs><filter id="filter0_d_759_233" x="0.00050354" y="0" width="57.999" height="36" filterUnits="userSpaceOnUse" color-interpolation-filters="sRGB"><feGaussianBlur stdDeviation="2"></feGaussianBlur></filter></defs></svg>