<svg xmlns="http://www.w3.org/2000/svg" width="213" height="58" viewBox="0 0 213 58" fill="none"><g filter="url(#filter0_d_1241_246)"><rect x="5.5" y="1.5" width="202" height="47" rx="23.5" stroke="#45AFE4" stroke-width="3"></rect><path d="M70.3867 17.1934C71.2396 17.1934 71.9655 17.3431 72.5645 17.6426C73.1699 17.9355 73.6257 18.349 73.9316 18.8828C74.2441 19.4167 74.4004 20.0417 74.4004 20.7578C74.4004 21.4154 74.2507 22.0208 73.9512 22.5742C73.6582 23.1276 73.1895 23.7135 72.5449 24.332L69.8789 26.9004H72.6328V26.002C72.6328 25.7741 72.7077 25.6146 72.8574 25.5234C73.0072 25.4323 73.2839 25.3867 73.6875 25.3867C74.1042 25.3867 74.4069 25.4355 74.5957 25.5332C74.7845 25.6243 74.8789 25.7806 74.8789 26.002V28.3652C74.8789 28.5866 74.8301 28.7493 74.7324 28.8535C74.6348 28.9512 74.472 29 74.2441 29H66.6855C66.5293 29 66.4089 28.974 66.3242 28.9219C66.2396 28.8633 66.1745 28.7624 66.1289 28.6191C66.0898 28.4759 66.0703 28.2676 66.0703 27.9941C66.0703 27.7337 66.0866 27.5384 66.1191 27.4082C66.1517 27.278 66.2135 27.1706 66.3047 27.0859L70.4941 23.0527C71.0345 22.5319 71.4056 22.112 71.6074 21.793C71.8158 21.474 71.9199 21.1452 71.9199 20.8066C71.9199 20.3574 71.7897 19.9961 71.5293 19.7227C71.2689 19.4492 70.8913 19.3125 70.3965 19.3125C69.8301 19.3125 69.2669 19.4492 68.707 19.7227V21.0898C68.707 21.3177 68.6322 21.4772 68.4824 21.5684C68.3327 21.6595 68.056 21.7051 67.6523 21.7051C67.2357 21.7051 66.9329 21.6595 66.7441 21.5684C66.5553 21.4707 66.4609 21.3112 66.4609 21.0898V18.7754C66.4609 18.5085 66.6009 18.3001 66.8809 18.1504C67.4603 17.8314 68.0495 17.5938 68.6484 17.4375C69.2474 17.2747 69.8268 17.1934 70.3867 17.1934ZM94.5078 17.1934C95.5755 17.1934 96.5163 17.4375 97.3301 17.9258C98.1439 18.4076 98.7721 19.1042 99.2148 20.0156C99.6641 20.9206 99.8887 21.9818 99.8887 23.1992C99.8887 24.4167 99.6641 25.4811 99.2148 26.3926C98.7721 27.2975 98.1439 27.9941 97.3301 28.4824C96.5163 28.9707 95.5755 29.2148 94.5078 29.2148C93.4401 29.2148 92.4993 28.9707 91.6855 28.4824C90.8717 27.9941 90.2402 27.2975 89.791 26.3926C89.3483 25.4811 89.127 24.4167 89.127 23.1992C89.127 21.9818 89.3483 20.9206 89.791 20.0156C90.2402 19.1042 90.8717 18.4076 91.6855 17.9258C92.4993 17.4375 93.4401 17.1934 94.5078 17.1934ZM94.5078 19.4102C93.6029 19.4102 92.916 19.7357 92.4473 20.3867C91.9785 21.0378 91.7441 21.9753 91.7441 23.1992C91.7441 24.4232 91.9785 25.3639 92.4473 26.0215C92.916 26.6725 93.6029 26.998 94.5078 26.998C95.4128 26.998 96.0996 26.6725 96.5684 26.0215C97.0371 25.3639 97.2715 24.4232 97.2715 23.1992C97.2715 21.9753 97.0371 21.0378 96.5684 20.3867C96.0996 19.7357 95.4128 19.4102 94.5078 19.4102ZM106.852 17.4082C108.225 17.4082 109.28 17.7109 110.016 18.3164C110.751 18.9219 111.119 19.8008 111.119 20.9531C111.119 22.457 110.312 23.4043 108.697 23.7949C109.049 23.9316 109.329 24.1335 109.537 24.4004C109.674 24.5762 109.798 24.7617 109.908 24.957C110.025 25.1458 110.159 25.3867 110.309 25.6797C110.465 25.9922 110.585 26.2168 110.67 26.3535C110.8 26.5684 110.93 26.7311 111.061 26.8418C111.191 26.946 111.337 26.998 111.5 26.998H111.686C111.842 26.998 111.962 27.0273 112.047 27.0859C112.132 27.138 112.193 27.2357 112.232 27.3789C112.278 27.5221 112.301 27.7305 112.301 28.0039C112.301 28.2773 112.278 28.4857 112.232 28.6289C112.193 28.7721 112.132 28.8698 112.047 28.9219C111.962 28.974 111.842 29 111.686 29H110.738C110.224 29 109.807 28.8958 109.488 28.6875C109.169 28.4792 108.876 28.1309 108.609 27.6426C108.479 27.4147 108.323 27.1022 108.141 26.7051C108.01 26.4056 107.887 26.1484 107.77 25.9336C107.652 25.7122 107.522 25.4974 107.379 25.2891C107.177 25.0091 106.952 24.8073 106.705 24.6836C106.458 24.5599 106.161 24.498 105.816 24.498H105.191V26.998H106.139C106.295 26.998 106.415 27.0273 106.5 27.0859C106.585 27.138 106.646 27.2357 106.686 27.3789C106.731 27.5221 106.754 27.7305 106.754 28.0039C106.754 28.2773 106.731 28.4857 106.686 28.6289C106.646 28.7721 106.585 28.8698 106.5 28.9219C106.415 28.974 106.295 29 106.139 29H101.705C101.549 29 101.428 28.974 101.344 28.9219C101.259 28.8698 101.194 28.7721 101.148 28.6289C101.109 28.4857 101.09 28.2773 101.09 28.0039C101.09 27.7305 101.109 27.5221 101.148 27.3789C101.194 27.2357 101.259 27.138 101.344 27.0859C101.428 27.0273 101.549 26.998 101.705 26.998H102.75V19.4102H101.705C101.549 19.4102 101.428 19.3841 101.344 19.332C101.259 19.2799 101.194 19.1823 101.148 19.0391C101.109 18.8958 101.09 18.6875 101.09 18.4141C101.09 18.1406 101.109 17.9323 101.148 17.7891C101.194 17.6458 101.259 17.5482 101.344 17.4961C101.428 17.4375 101.549 17.4082 101.705 17.4082H106.852ZM105.191 22.3984H106.646C107.311 22.3984 107.802 22.2812 108.121 22.0469C108.44 21.806 108.6 21.4414 108.6 20.9531C108.6 20.4648 108.44 20.1035 108.121 19.8691C107.802 19.6283 107.311 19.5078 106.646 19.5078H105.191V22.3984ZM119.303 17.4082C119.563 17.4082 119.775 17.4603 119.938 17.5645C120.1 17.6621 120.217 17.8216 120.289 18.043L123.121 26.998H123.971C124.127 26.998 124.247 27.0241 124.332 27.0762C124.417 27.1283 124.479 27.2259 124.518 27.3691C124.563 27.5124 124.586 27.7207 124.586 27.9941C124.586 28.2676 124.563 28.4759 124.518 28.6191C124.479 28.7624 124.417 28.8633 124.332 28.9219C124.247 28.974 124.127 29 123.971 29H119.83C119.674 29 119.553 28.974 119.469 28.9219C119.384 28.8633 119.319 28.7624 119.273 28.6191C119.234 28.4759 119.215 28.2676 119.215 27.9941C119.215 27.7207 119.234 27.5124 119.273 27.3691C119.319 27.2259 119.384 27.1283 119.469 27.0762C119.553 27.0241 119.674 26.998 119.83 26.998H120.67L120.23 25.582H116.676L116.236 26.998H116.959C117.115 26.998 117.236 27.0241 117.32 27.0762C117.405 27.1283 117.467 27.2259 117.506 27.3691C117.551 27.5124 117.574 27.7207 117.574 27.9941C117.574 28.2676 117.551 28.4759 117.506 28.6191C117.467 28.7624 117.405 28.8633 117.32 28.9219C117.236 28.974 117.115 29 116.959 29H113.014C112.857 29 112.737 28.974 112.652 28.9219C112.568 28.8633 112.506 28.7624 112.467 28.6191C112.421 28.4759 112.398 28.2676 112.398 27.9941C112.398 27.7207 112.421 27.5124 112.467 27.3691C112.506 27.2259 112.568 27.1283 112.652 27.0762C112.737 27.0241 112.857 26.998 113.014 26.998H113.834L116.305 19.4102H114.674C114.518 19.4102 114.397 19.3841 114.312 19.332C114.228 19.2734 114.163 19.1725 114.117 19.0293C114.078 18.8861 114.059 18.6777 114.059 18.4043C114.059 18.1309 114.078 17.9225 114.117 17.7793C114.163 17.6361 114.228 17.5384 114.312 17.4863C114.397 17.4342 114.518 17.4082 114.674 17.4082H119.303ZM118.443 19.4102L117.242 23.5801H119.674L118.502 19.4102H118.443ZM135.572 17.4082C135.729 17.4082 135.849 17.4375 135.934 17.4961C136.018 17.5482 136.08 17.6458 136.119 17.7891C136.165 17.9323 136.188 18.1406 136.188 18.4141C136.188 18.6875 136.165 18.8958 136.119 19.0391C136.08 19.1823 136.018 19.2799 135.934 19.332C135.849 19.3841 135.729 19.4102 135.572 19.4102H135.016V28.5703C135.016 28.7852 134.934 28.9447 134.771 29.0488C134.609 29.1595 134.332 29.2148 133.941 29.2148C133.642 29.2148 133.417 29.1725 133.268 29.0879C133.124 29.0098 132.997 28.8796 132.887 28.6973L128.492 21.4219H128.453V26.998H129.537C129.693 26.998 129.814 27.0273 129.898 27.0859C129.983 27.138 130.045 27.2357 130.084 27.3789C130.13 27.5221 130.152 27.7305 130.152 28.0039C130.152 28.2773 130.13 28.4857 130.084 28.6289C130.045 28.7721 129.983 28.8698 129.898 28.9219C129.814 28.974 129.693 29 129.537 29H125.592C125.436 29 125.315 28.974 125.23 28.9219C125.146 28.8698 125.081 28.7721 125.035 28.6289C124.996 28.4857 124.977 28.2773 124.977 28.0039C124.977 27.7305 124.996 27.5221 125.035 27.3789C125.081 27.2357 125.146 27.138 125.23 27.0859C125.315 27.0273 125.436 26.998 125.592 26.998H126.246V19.4102H125.592C125.436 19.4102 125.315 19.3841 125.23 19.332C125.146 19.2799 125.081 19.1823 125.035 19.0391C124.996 18.8958 124.977 18.6875 124.977 18.4141C124.977 18.1406 124.996 17.9323 125.035 17.7891C125.081 17.6458 125.146 17.5482 125.23 17.4961C125.315 17.4375 125.436 17.4082 125.592 17.4082H128.17C128.43 17.4082 128.613 17.4961 128.717 17.6719L132.77 24.3809H132.809V19.4102H131.91C131.754 19.4102 131.633 19.3841 131.549 19.332C131.464 19.2799 131.399 19.1823 131.354 19.0391C131.314 18.8958 131.295 18.6875 131.295 18.4141C131.295 18.1406 131.314 17.9323 131.354 17.7891C131.399 17.6458 131.464 17.5482 131.549 17.4961C131.633 17.4375 131.754 17.4082 131.91 17.4082H135.572ZM146.012 17.1934C146.415 17.1934 146.692 17.2389 146.842 17.3301C146.992 17.4212 147.066 17.5807 147.066 17.8086V21.168C147.066 21.3893 146.965 21.5488 146.764 21.6465C146.568 21.7376 146.24 21.7832 145.777 21.7832C145.471 21.7832 145.234 21.7637 145.064 21.7246C144.902 21.679 144.788 21.6139 144.723 21.5293C144.658 21.4447 144.625 21.3242 144.625 21.168C144.625 20.6081 144.456 20.1751 144.117 19.8691C143.779 19.5632 143.264 19.4102 142.574 19.4102C141.669 19.4102 140.982 19.7357 140.514 20.3867C140.045 21.0378 139.811 21.9753 139.811 23.1992C139.811 24.4102 140.058 25.3477 140.553 26.0117C141.054 26.6693 141.76 26.998 142.672 26.998C143.395 26.998 144.078 26.9004 144.723 26.7051V25.0742H142.838C142.682 25.0742 142.561 25.0482 142.477 24.9961C142.392 24.944 142.327 24.8464 142.281 24.7031C142.242 24.5599 142.223 24.3516 142.223 24.0781C142.223 23.8047 142.242 23.5964 142.281 23.4531C142.327 23.3099 142.392 23.2122 142.477 23.1602C142.561 23.1016 142.682 23.0723 142.838 23.0723H147.467C147.623 23.0723 147.743 23.1016 147.828 23.1602C147.913 23.2122 147.975 23.3099 148.014 23.4531C148.059 23.5964 148.082 23.8047 148.082 24.0781C148.082 24.3516 148.059 24.5599 148.014 24.7031C147.975 24.8464 147.913 24.944 147.828 24.9961C147.743 25.0482 147.623 25.0742 147.467 25.0742H147.164V27.6035C147.164 27.7598 147.132 27.8965 147.066 28.0137C147.008 28.1309 146.923 28.2188 146.812 28.2773C146.207 28.5898 145.543 28.8242 144.82 28.9805C144.098 29.1367 143.349 29.2148 142.574 29.2148C141.507 29.2148 140.566 28.9707 139.752 28.4824C138.938 27.9941 138.307 27.2975 137.857 26.3926C137.415 25.4811 137.193 24.4167 137.193 23.1992C137.193 21.9883 137.411 20.9303 137.848 20.0254C138.284 19.1139 138.886 18.4141 139.654 17.9258C140.429 17.4375 141.305 17.1934 142.281 17.1934C143.427 17.1934 144.273 17.5775 144.82 18.3457V17.8086C144.82 17.5872 144.915 17.431 145.104 17.3398C145.292 17.2422 145.595 17.1934 146.012 17.1934Z" fill="white"></path></g><defs><filter id="filter0_d_1241_246" x="0" y="0" width="213" height="58" filterUnits="userSpaceOnUse" color-interpolation-filters="sRGB"><feGaussianBlur stdDeviation="2"></feGaussianBlur></filter></defs></svg>