<svg xmlns="http://www.w3.org/2000/svg" width="208" height="167" viewBox="0 0 208 167" fill="none"><path fill-rule="evenodd" clip-rule="evenodd" d="M139.043 151.75C112.504 151.75 89.8336 147.735 89.8336 131.661C89.8336 115.588 112.358 100.968 139.043 100.968C165.582 100.968 188.252 115.448 188.252 131.515C188.252 147.582 165.728 151.75 139.043 151.75Z" stroke="white" stroke-width="15" stroke-linecap="round" stroke-linejoin="round"></path><path fill-rule="evenodd" clip-rule="evenodd" d="M139.044 78.0447C156.46 78.0447 170.585 63.9194 170.585 46.5027C170.585 29.079 156.46 14.9606 139.044 14.9606C121.627 14.9606 107.501 29.079 107.501 46.5027C107.439 63.8568 121.467 77.982 138.821 78.0447H139.044Z" stroke="white" stroke-width="15" stroke-linecap="round" stroke-linejoin="round"></path><path fill-rule="evenodd" clip-rule="evenodd" d="M69.043 151.75C42.5039 151.75 19.8336 147.735 19.8336 131.661C19.8336 115.588 42.3577 100.968 69.043 100.968C95.5818 100.968 118.252 115.448 118.252 131.515C118.252 147.582 95.7279 151.75 69.043 151.75Z" stroke="#45AFE4" stroke-width="15" stroke-linecap="round" stroke-linejoin="round"></path><path fill-rule="evenodd" clip-rule="evenodd" d="M69.0436 78.0447C86.4601 78.0447 100.585 63.9194 100.585 46.5027C100.585 29.079 86.4601 14.9606 69.0436 14.9606C51.6268 14.9606 37.5014 29.079 37.5014 46.5027C37.4388 63.8568 51.4668 77.982 68.8209 78.0447H69.0436Z" stroke="#45AFE4" stroke-width="15" stroke-linecap="round" stroke-linejoin="round"></path></svg>